<?xml version="1.0" encoding="us-ascii" standalone="no"?><svg xmlns="http://www.w3.org/2000/svg" xmlns:xlink="http://www.w3.org/1999/xlink" contentStyleType="text/css" height="332px" preserveAspectRatio="none" style="width:301px;height:332px;background:#FFFFFF;" version="1.1" viewBox="0 0 301 332" width="301px" zoomAndPan="magnify"><defs/><g><!--class Page--><g id="elem_Page"><rect codeLine="1" fill="#F1F1F1" height="96.8906" id="Page" rx="2.5" ry="2.5" style="stroke:#181818;stroke-width:0.5;" width="163" x="20.5" y="7"/><ellipse cx="80.25" cy="23" fill="#ADD1B2" rx="11" ry="11" style="stroke:#181818;stroke-width:1.0;"/><path d="M82.5938,18.6719 C81.6563,18.2344 81.0625,18.0938 80.1875,18.0938 C77.5625,18.0938 75.5625,20.1719 75.5625,22.8906 L75.5625,24.0156 C75.5625,26.5938 77.6719,28.4844 80.5625,28.4844 C81.7813,28.4844 82.9375,28.1875 83.6875,27.6406 C84.2656,27.2344 84.5938,26.7813 84.5938,26.3906 C84.5938,25.9375 84.2031,25.5469 83.7344,25.5469 C83.5156,25.5469 83.3125,25.625 83.125,25.8125 C82.6719,26.2969 82.6719,26.2969 82.4844,26.3906 C82.0625,26.6563 81.375,26.7813 80.6094,26.7813 C78.5625,26.7813 77.2656,25.6875 77.2656,23.9844 L77.2656,22.8906 C77.2656,21.1094 78.5156,19.7969 80.25,19.7969 C80.8281,19.7969 81.4375,19.9531 81.9063,20.2031 C82.3906,20.4844 82.5625,20.7031 82.6563,21.1094 C82.7188,21.5156 82.75,21.6406 82.8906,21.7656 C83.0313,21.9063 83.2656,22.0156 83.4844,22.0156 C83.75,22.0156 84.0156,21.875 84.1875,21.6563 C84.2969,21.5 84.3281,21.3125 84.3281,20.8906 L84.3281,19.4688 C84.3281,19.0313 84.3125,18.9063 84.2188,18.75 C84.0625,18.4844 83.7813,18.3438 83.4844,18.3438 C83.1875,18.3438 82.9844,18.4375 82.7656,18.75 L82.5938,18.6719 Z " fill="#000000"/><text fill="#000000" font-family="sans-serif" font-size="14" lengthAdjust="spacing" textLength="35" x="100.75" y="27.8467">Page</text><line style="stroke:#181818;stroke-width:0.5;" x1="21.5" x2="182.5" y1="39" y2="39"/><text fill="#000000" font-family="sans-serif" font-size="14" lengthAdjust="spacing" textLength="151" x="26.5" y="55.9951">provinces: Province[]</text><text fill="#000000" font-family="sans-serif" font-size="14" lengthAdjust="spacing" textLength="86" x="26.5" y="72.292">idx: number</text><text fill="#000000" font-family="sans-serif" font-size="14" lengthAdjust="spacing" textLength="113" x="26.5" y="88.5889">setIdx: function</text><line style="stroke:#181818;stroke-width:0.5;" x1="21.5" x2="182.5" y1="95.8906" y2="95.8906"/></g><!--class ProvinceSelectButton--><g id="elem_ProvinceSelectButton"><rect codeLine="7" fill="#F1F1F1" height="129.4844" id="ProvinceSelectButton" rx="2.5" ry="2.5" style="stroke:#181818;stroke-width:0.5;" width="190" x="7" y="196"/><ellipse cx="22" cy="212" fill="#ADD1B2" rx="11" ry="11" style="stroke:#181818;stroke-width:1.0;"/><path d="M24.3438,207.6719 C23.4063,207.2344 22.8125,207.0938 21.9375,207.0938 C19.3125,207.0938 17.3125,209.1719 17.3125,211.8906 L17.3125,213.0156 C17.3125,215.5938 19.4219,217.4844 22.3125,217.4844 C23.5313,217.4844 24.6875,217.1875 25.4375,216.6406 C26.0156,216.2344 26.3438,215.7813 26.3438,215.3906 C26.3438,214.9375 25.9531,214.5469 25.4844,214.5469 C25.2656,214.5469 25.0625,214.625 24.875,214.8125 C24.4219,215.2969 24.4219,215.2969 24.2344,215.3906 C23.8125,215.6563 23.125,215.7813 22.3594,215.7813 C20.3125,215.7813 19.0156,214.6875 19.0156,212.9844 L19.0156,211.8906 C19.0156,210.1094 20.2656,208.7969 22,208.7969 C22.5781,208.7969 23.1875,208.9531 23.6563,209.2031 C24.1406,209.4844 24.3125,209.7031 24.4063,210.1094 C24.4688,210.5156 24.5,210.6406 24.6406,210.7656 C24.7813,210.9063 25.0156,211.0156 25.2344,211.0156 C25.5,211.0156 25.7656,210.875 25.9375,210.6563 C26.0469,210.5 26.0781,210.3125 26.0781,209.8906 L26.0781,208.4688 C26.0781,208.0313 26.0625,207.9063 25.9688,207.75 C25.8125,207.4844 25.5313,207.3438 25.2344,207.3438 C24.9375,207.3438 24.7344,207.4375 24.5156,207.75 L24.3438,207.6719 Z " fill="#000000"/><text fill="#000000" font-family="sans-serif" font-size="14" lengthAdjust="spacing" textLength="158" x="36" y="216.8467">ProvinceSelectButton</text><line style="stroke:#181818;stroke-width:0.5;" x1="8" x2="196" y1="228" y2="228"/><text fill="#000000" font-family="sans-serif" font-size="14" lengthAdjust="spacing" textLength="112" x="13" y="244.9951">length: number</text><text fill="#000000" font-family="sans-serif" font-size="14" lengthAdjust="spacing" textLength="86" x="13" y="261.292">idx: number</text><text fill="#000000" font-family="sans-serif" font-size="14" lengthAdjust="spacing" textLength="113" x="13" y="277.5889">setIdx: function</text><line style="stroke:#181818;stroke-width:0.5;" x1="8" x2="196" y1="284.8906" y2="284.8906"/><text fill="#000000" font-family="sans-serif" font-size="14" lengthAdjust="spacing" textLength="70" x="13" y="301.8857">inc(): void</text><text fill="#000000" font-family="sans-serif" font-size="14" lengthAdjust="spacing" textLength="75" x="13" y="318.1826">dec(): void</text></g><!--link Page to ProvinceSelectButton--><g id="link_Page_ProvinceSelectButton"><path codeLine="15" d="M102,104.094 C102,131.399 102,160.037 102,189.678 " fill="none" id="Page-to-ProvinceSelectButton" style="stroke:#181818;stroke-width:1.0;"/><polygon fill="#181818" points="102,195.678,106,186.678,102,190.678,98,186.678,102,195.678" style="stroke:#181818;stroke-width:1.0;"/><text fill="#000000" font-family="sans-serif" font-size="13" lengthAdjust="spacing" textLength="30" x="183" y="147.0669">uses</text><text fill="#000000" font-family="sans-serif" font-size="13" lengthAdjust="spacing" textLength="190" x="103" y="162.1997">(provinces.length, idx, setIdx)</text></g><!--SRC=[XO-n2i9038RtUugCBRG-m0qERcu5HtMeQQm7PqwQN174T_VQ7keWkEKFoVSbw5iHQDgUu640RaCO7IE9XIQN-sFgk-vkWUFrH4DAGhgT6kV8g2wmUHg32oWlxSWJwYQg1fx1dhZNonVZ3p4DC1QbXJ6uBgMEFYdPveFhUlrJQ24AoO6BzpUhHLzDrYhBoXS0]--></g></svg>